<svg xmlns="http://www.w3.org/2000/svg" xml:space="preserve" width="1500" height="1500" data-id="lg_RPR0ABlzKFccqtNwcK" data-version="1" viewBox="0 0 1500 1500"><path fill="#fff" stroke="transparent" d="M0 0h1500v1500H0z"/><g data-padding="20"><g transform="translate(-576.165 -589.14)scale(1.72788)"><rect width="587.837" height="161.59" x="218.744" y="653.488" fill="none" rx="0" ry="0" transform="matrix(.95 0 0 .95 280.48 77.45)"/><path d="M549.209 782.449q-4.892.816-16.986 2.032-1.083 14.545-1.083 32.604-.541 1.226-7.61 1.226h-6.108q-2.992 0-4.892-.133l-3.126.133q-1.491 0-2.175-.266-.675-.276-1.226-1.226l-.133-35.862.133-18.345q.275-12.226.275-18.477v-19.152l.409-.817q2.175-.674 4.55-.95 2.375-.266 4.55-.342 2.176-.066 2.85-.066l4.76-.266q11.685-.95 20.51-.95 13.719 0 23.912 2.308.95 2.033.95 14.127 0 4.208-.408 5.3v1.359q-.542 1.216-5.7 1.216h-2.043q-18.61 0-28.661 1.5-1.226 3.117-1.226 5.976 0 2.85.884 4.076.883 1.216 2.584 1.558 1.69.342 5.225.342 5.025 0 9.652-.817.807.95 1.083 2.109.275 1.15.275 3.458 0 2.318-.275 6.66-.276 3.809-.276 4.892 0 .275.143 1.425.133 1.159.133 3.192 0 1.092-.067 1.292-.066.2-.75.883Zm-.541-1.226q-.41-1.624-.41-3.8 0-2.042.134-3.667.133-1.634.276-2.86.408-3.524.408-6.516 0-2.85-.551-4.352-4.075.685-9.101.685-3.933 0-5.91-.41-1.965-.407-3.058-1.832-1.083-1.425-1.083-4.684 0-2.175.542-4.693.54-2.508 1.5-2.916 6.109-.95 18.61-1.226l9.368-.408h3.6q2.385 0 4.01-.41 0-.95.133-1.49l-.133-17.528q-10.593-2.308-24.72-2.308-14.81 0-34.646 2.584l-.133 45.647q-.142 15.21-.142 45.505 5.434.684 10.193.684 5.71 0 12.227-.684 0-18.335 1.083-32.87l.684-.551h.54l.277-.4v.4q.95-.133 2.033-.332 1.092-.21 2.308-.342l4.076-.41q1.358-.132 3.334-.274 1.967-.133 4.55-.542m89.785 35.187v1.083l-11.41.142q-3.81.133-11.276.133l-.541-.408q-.684-1.36-4.076-8.427-2.992-6.792-4.76-10.05-2.032-3.668-6.66-10.46-.806-1.226-1.49-2.176-.675-.95-1.226-1.767-.541 3.4-.541 9.244 0 12.093 1.5 22.002-1.225 2.45-13.043 2.45l-5.975-.132q-1.767-.143-5.301-.143l-.41-1.083-.132.266q.409-2.441.409-7.467 0-10.868-.276-32.604-.408-16.17-.408-32.47v-7.335q0-9.1-.817-14.81l.684-.807q15.21-2.717 25.669-2.717 9.918 0 18.753 3.192 8.825 3.192 14.326 9.984 5.51 6.793 5.51 16.844 0 6.659-2.65 12.834-2.651 6.184-7.61 10.193-4.96 4.01-11.62 4.408 2.044 3.534 8.703 13.452 5.833 8.693 9.367 14.678 3.534 5.975 5.976 12.492Zm-1.083-.275q-2.717-6.518-6.118-12.227-3.391-5.7-10.05-15.751l-2.176-2.992q-2.441-3.126-3.8-5.302t-1.767-4.075l.675-.817q6.526 0 11.409-3.8 4.893-3.8 7.477-9.785 2.583-5.976 2.583-12.36 0-10.46-5.51-16.91-5.5-6.45-13.585-9.1-8.075-2.651-16.777-2.651-1.9 0-5.975.266l-2.983.142h.266q-10.46.675-17.518 2.033.266 2.176.266 3.126 0 19.019.684 42.522.542 27.987.542 42.246 0 2.993-.41 5.843 3.392 0 5.159.142l5.843.133q6.793 0 11.01-1.491-1.5-12.227-1.5-22.287 0-6.517.816-10.593l1.226-.275q.674.95 1.558 2.308.883 1.359 1.976 2.86 4.883 7.058 6.925 11l4.342 8.969q2.318 5.158 4.218 9.1l10.592-.132q3.534-.143 10.602-.143m-45.106-75.525q5.026-2.176 9.643-2.176 5.3 0 8.426 3.126t3.126 7.6q0 4.35-2.65 7.267-2.651 2.926-7.81 2.926-3.125 0-5.71-.408-3.257-.276-4.074-.276-1.492-1.491-1.492-4.75 0-1.634.2-3.192.208-1.567.208-2.65 0-.542-.142-1.083-.133-.551-.133-1.226l.133-2.441Zm9.785-.684q-4.35 0-8.835 1.9v.817q.276.54.276 3.8l-.143 6.659q0 2.176.409 4.209 3.81.817 7.742.817 10.735 0 10.735-8.56 0-2.574-1.16-4.816-1.148-2.242-3.191-3.468-2.574-1.358-5.833-1.358m67.374-18.21q0 10.734-.133 18.885t-.275 13.443q-.542 21.47-.542 32.338 0 18.069.817 30.153-1.225 1.225-3.125 1.7t-4.75.475q-2.717 0-7.885-.541-1.358-.133-2.916-.276-1.568-.133-3.193-.133-2.042 0-2.992.409l-1.226-.542q.55-10.326.55-23.094 0-11.96-.407-23.778-.143-4.076-.276-10.118-.133-6.052-.133-14.203 0-6.792.409-13.718.54-11.276 1.624-12.36 3.81 0 7.61.409 1.358.133 3.258.266 1.91.143 4.484.143l8.427-.143Zm-2.308 64.799q0-10.592.142-18.61.133-8.02.266-13.32.542-21.46.542-32.195l-7.875.142q-1.634 0-3.876-.142-2.242-.133-3.325-.266-3.667-.41-7.334-.41-1.226 10.328-1.226 23.913 0 7.2.133 12.7.143 5.502.275 9.036.409 10.725.409 21.736 0 12.226-.684 27.844 1.91-.266 3.4-.266 1.635 0 5.977.266 4.617.276 6.925.276 1.5 0 4.218-.542 1.492-.408 2.85-.408-.817-11.96-.817-29.754M727.838 733q5.577 9.918 7.41 16.71t1.834 15.75q0 2.585-.276 10.736 0 .95-.675 5.434-.684 3.4-.684 5.976l-.133.142q-.133 1.492-1.225 3.8-1.083 2.309-1.36 2.85-2.716 6.25-6.725 12.293-4.01 6.052-8.483 10.536-8.018.54-17.803.54l-17.518-.132q0 .542.133.95l-.541-.95h-3.126l2.983-.275h-.133q-.275-.133-.674-.133-2.32-18.753-2.32-46.465l.144-17.527q.133-5.833.133-17.518l-.133-11.685.266-.541q-.133 0-.133.133.408-2.442 15.893-2.442l8.968-.143q5.71 0 9.643.817 3.942.817 7.543 3.4 3.6 2.576 6.992 7.744m7.61 43.064q.275-8.427.275-11.002 0-8.702-1.767-15.285-1.767-6.593-7.201-16.103-5.434-8.008-14.402-11-2.441.132-7.201.132h-8.417q-10.46 0-16.71 1.226v.133l.133 12.369q0 11.267-.133 16.843l-.143 16.977q0 27.17 2.176 45.923l18.61.133q9.1 0 16.302-.541 6.25-7.886 10.46-14.536 4.217-6.66 6.526-13.727v.143l.266-.276h-.133q0-2.584.684-5.975.674-4.484.674-5.434m-29.345-25.946q6.793 0 9.984 6.65 3.192 6.66 3.192 14.269 0 5.434-3.932 12.084l.133-.133q-.95 1.9-3.192 3.81-2.242 1.9-3.734 1.9-.408 0-.541-.143-1.634.409-5.035.409-3.116 0-4.21-1.36-1.082-1.357-1.082-4.074 0-1.36.133-2.784t.133-3.06V751.48q1.358-1.36 8.15-1.36m8.152 32.329q3.667-5.975 3.667-12.502 0-4.075-1.358-8.416-1.36-4.352-4.076-7.268-2.717-2.926-6.517-2.926-1.225 0-3.258.275-2.043.266-3.401.409l.142 5.29q.133 1.635.133 5.036 0 3.116-.275 9.643-.266 6.517-.266 9.918 0 2.44.475 3.867.475 1.424 2.099 1.833.817 0 2.45-.2 1.626-.208 3.393-.208.817 0 1.092.142h.133q.684 0 2.85-1.9 2.176-1.91 2.717-2.993m67.659-14.943q4.617 0 10.05.674 6.252.55 8.56.55l.542.267q.684.684 1.017 6.318.342 5.643.342 9.576 0 8.968-.751 15.01-.741 6.05-4 10.535-3.942 5.434-11.827 7.467-7.875 2.043-16.302 2.043-12.226 0-18.743-7.477-5.301-5.975-6.926-18.268-1.634-12.293-1.634-27.778v-6.793q0-12.093 2.45-21.26 2.442-9.178 9.91-13.386 4.075-2.31 8.702-2.993 4.617-.674 11.134-.674 7.742 0 13.927 3.534t9.642 9.576q3.468 6.042 3.468 13.518 0 .817-.342 2.575-.342 1.767-.342 2.717-1.492.817-4.342.817l-2.175-.133q-1.36.408-4.076.408-4.892 0-7.201-.817l-1.225-2.85q-1.625-3.667-2.983-5.643-1.36-1.966-4.076-2.783l-5.842-.133q-3.8 1.358-5.301 11.21-1.492 9.842-1.492 25.878 0 7.61 1.7 12.768 1.692 5.158 6.584 6.66 4.076 0 6.593-.884 2.508-.884 3.933-3.743 1.435-2.85 1.435-8.417h-3.401q-.95.54-2.717.54-3.26 0-4.142-1.424t-.884-5.5q0-2.451.409-3.26l-.133-2.991q-.143-.95-.143-2.717l.817-.95q3.534-1.767 9.785-1.767m-9.243 3.125v.133q.55 1.634.55 3.667 0 1.359-.275 3.534-.275 2.718-.275 4.209 0 1.226.408 1.834.408.617 1.9.617.96 0 2.584-.275 1.634-.266 2.584-.266 2.308 0 3.059.674.74.684.74 2.309 0 6.117-3.258 9.575-3.258 3.468-8.56 3.468-7.2 0-9.233-6.86-2.043-6.858-2.043-17.87 0-3.932.276-11 0-1.225.266-7.951.275-6.717 2.517-11.134t6.45-4.418q5.843 0 8.902 2.784t4.55 8.626l4.893.142q3.259.266 4.893.266 1.083-.266 1.624-.266l2.176.133q.275-.133.95-.133 1.225 0 1.49-1.16.277-1.148.277-2.507v-1.767q0-11.685-8.626-18.002-8.626-6.318-21.394-6.318-5.577 0-10.602 1.7-5.026 1.692-8.693 5.226-3.125 2.86-4.417 7.41t-1.834 10.393q-.817 8.958-.817 22.41 0 31.93 8.018 41.705 5.843 7.068 17.794 7.068 9.243 0 17.527-2.45 8.284-2.442 11.144-8.96 3.125-6.934 3.125-17.935 0-4.351-.408-9.234-.41-4.892-.542-6.118l-.408-3.8q-2.31 0-8.018-.551-6.793-.541-10.051-.541-6.118 0-9.101 1.5-.143 0-.143.067Zm95.779 34.637q0 4.893-.276 7.885-.266 2.983-1.624 4.342-5.843 0-17.252.275-11.686.276-17.395.276-10.592 0-21.052-.817l-.684-.817q0-10.051-.266-30.163-.41-15.076-.41-30.153 0-19.56.809-32.604l.684-.541q6.66-.41 20.102-.684 4.484 0 13.452-.276 1.767 0 5.842-.266 4.076-.408 8.15-.408 4.618 0 8.827.817.96 2.033.96 5.7 0 2.584-.276 7.476l-.133 6.926q-.95 2.042-12.778 2.042l-11.542-.142q-2.043 0-6.118.275l-5.7.133q0 1.226-.276 3.667-.266 4.076-.266 6.118 0 2.85.542 5.026 3.39.542 8.15.542l8.152-.134q1.083 2.309 1.083 6.384 0 3.392-.133 5.026l-.133 5.158q0 2.176.133 3.126-.817 1.5-6.793 1.5l-5.71-.142q-.807.276-1.966.342-1.16.067-1.966.21-.817 4.075-.817 8.55 0 3.676.674 7.476 4.076 0 7.135.133 3.059.142 5.092.275 10.06.542 14.943.542 2.584 0 8.018-.276l.684.684v.276q.133 2.166.133 6.24m-2.451 10.869q1.092-4.75 1.092-10.592 0-3.943-.133-5.976-2.175.133-6.526.133-4.75 0-14.26-.541-2.451-.133-5.985-.276-3.524-.133-8.151-.133-1.492 0-1.492-7.875 0-6.118.409-8.294t1.966-2.783q1.568-.608 5.91-.608 1.909 0 2.859.133l2.85.133q2.043 0 3.126-.41l.133-11.541q0-3.126-.41-6.384l-7.741-.133q-.675 0-1.9.133t-2.993.133q-5.158 0-5.158-4.75 0-4.76.133-8.018.142-3.26.95-5.026l.142-.133q2.175 0 7.058-.275 4.627-.276 7.2-.276l8.019.143q7.467 0 13.452-1.093l.133-6.384q.276-4.341.276-6.66 0-3.666-.276-5.433-3.258-.542-8.018-.542-3.258 0-9.234.276-3.534.266-4.892.266-8.692.275-13.176.275-13.177.276-19.703.684-.808 12.9-.808 32.196 0 14.943.409 29.61.266 19.837.266 29.755 10.459.817 20.653.817 5.567 0 16.976-.275 11.144-.276 16.844-.276m6.117-26.486q0-3.667.276-10.735l.133-10.735.674-.807h60.183l.684.674-.142 6.527q-.266 4.617-.266 6.65 0 4.76.817 9.243l-.684.95q-10.185 0-30.562-.541-5.168-.143-12.778-.276-7.6-.133-17.66-.133Zm1.226-11.41.133 10.869q9.785 0 17.185.133t12.426.275q19.836.542 29.887.542-.674-3.401-.674-8.294l.133-6.384q.275-4.341.275-6.65H873.88q-.541 4.209-.541 9.51m125.4 38.988q-.684 1.358-8.151 1.358-2.992 0-6.792-.341-3.81-.343-4.627-1.293-1.358-3.125-2.717-9.917-.807-4.076-1.558-6.727-.75-2.64-1.966-5.092-1.093 0-2.318-.133-1.216-.132-2.31-.132-.54.265-1.357.265l-1.625-.132q-1.225 2.584-1.7 5.909t-.608 4.009q-.551 4.208-1.292 7.125-.75 2.926-2.242 5.367l-.276.143-.541.266h.133l-1.216.142-8.151-.142q-6.793-.266-10.46-.266l-.142-.143-.266-.674q.674-2.31.95-5.71.266-2.441.54-3.391 7.744-49.05 19.296-85.728l.674-.542h.684q.808-.408 8.693-.408 1.9-.133 3.866-.133 1.976 0 3.468-.133 1.083 1.216 1.966 5.092.884 3.876 1.026 4.55l.675 3.4q5.3 22.82 16.302 73.759l2.042 9.244Zm-8.018 0q3.667 0 6.517-.542l-8.558-38.997q-7.201-32.195-9.643-43.472-.133-.674-1.225-4.75-1.36-4.892-1.625-7.334-6.384.675-15.627.675-12.227 38.855-19.152 85.319-.133 1.083-.475 3.734t-.884 4.55q8.968.409 12.768.409 4.209 0 5.567-.276 1.359-2.175 2.11-5.092t1.424-6.992q1.093-7.068 2.45-10.326l.543-.41h2.85q.408-.274 1.634-.274 1.216 0 2.44.209 1.227.199 2.177.608 1.767 3.4 2.65 7.476.884 4.076 1.017 4.75 1.225 6.25 2.44 9.51 1.36.133 3.269.475 1.9.342 3.126.475 2.717.275 4.208.275m-16.71-38.18-8.151.142q-1.634 0-2.584-.95 2.584-28.937 5.3-28.937h.542q2.176 2.574 3.192 8.284t1.7 14.402q.134 1.49.276 3.125.133 1.625.4 3.259Zm-6.793-1.084q1.9 0 5.976-.275-1.625-13.718-2.85-20.92-.133-.54-.41-2.716t-1.082-3.125q-1.5 4.626-2.242 9.443-.75 4.826-1.434 12.293l-.542 5.168q.817.133 2.584.133m61.256-56.25q0 10.734-.133 18.885t-.276 13.443q-.541 21.47-.541 32.338 0 18.069.817 30.153-1.226 1.225-3.126 1.7t-4.75.475q-2.717 0-7.885-.541-1.358-.133-2.916-.276-1.568-.133-3.192-.133-2.043 0-2.993.409l-1.225-.542q.55-10.326.55-23.094 0-11.96-.407-23.778-.143-4.076-.276-10.118-.133-6.052-.133-14.203 0-6.792.409-13.718.54-11.276 1.624-12.36 3.81 0 7.61.409 1.358.133 3.258.266 1.9.143 4.484.143l8.426-.143Zm-2.31 64.799q0-10.592.134-18.61.143-8.02.276-13.32.542-21.46.542-32.195l-7.876.142q-1.634 0-3.876-.142-2.242-.133-3.325-.266-3.667-.41-7.334-.41-1.225 10.328-1.225 23.913 0 7.2.133 12.7.142 5.502.275 9.036.409 10.725.409 21.736 0 12.226-.684 27.844 1.909-.266 3.4-.266 1.625 0 5.976.266 4.617.276 6.926.276 1.5 0 4.218-.542 1.49-.408 2.85-.408-.817-11.96-.817-29.754"/></g><path fill="transparent" stroke="transparent" stroke-width="1.792" d="M250 612.007h1000v275.986H250z"/></g></svg>